<?xml version="1.0"?>
<svg xmlns="http://www.w3.org/2000/svg" viewBox="0 0 64 64" width="512" height="512"><path d="m18 13c-8.2843 0-15 2.46246-15 5.5v28.5c1.4671 2.14709 7.81488 4 15 4 7.09045 0 13.62756-1.99146 15-4v-28.5c0-3.03754-6.7157-5.5-15-5.5z" fill="#fcdd5e"/><ellipse cx="18" cy="18.5" fill="#fcd821" rx="15" ry="5.5"/><path d="m55 6-1-3h-14l2 13 4-10z" fill="#47baaf"/><path d="m46 6h15l-4 10h-15z" fill="#b6dedc"/><path d="m55 28-1-3h-14l2 13 4-10z" fill="#47baaf"/><path d="m46 28h15l-4 10h-15z" fill="#b6dedc"/><path d="m55 51-1-3h-14l2 13 4-10z" fill="#47baaf"/><path d="m46 51h15l-4 10h-15z" fill="#b6dedc"/><path d="m61.82813 5.43945a1.00026 1.00026 0 0 0 -.82813-.43945h-5.2796l-.77216-2.31641a.9989.9989 0 0 0 -.94824-.68359h-14a.99979.99979 0 0 0 -.98828 1.15186l2 13 .00445-.00068a.98592.98592 0 0 0 .98383.84882h15a1.00073 1.00073 0 0 0 .92871-.62842l4-10a1.00221 1.00221 0 0 0 -.10058-.93213zm-8.54883-1.43945.33349 1h-7.61279a1.00073 1.00073 0 0 0 -.92871.62842l-2.63983 6.59949-1.26546-8.22791zm3.04394 11h-12.84668l3.2002-8h12.84668z"/><path d="m61.82813 27.43945a1.00026 1.00026 0 0 0 -.82813-.43945h-5.2796l-.77216-2.31641a.9989.9989 0 0 0 -.94824-.68359h-14a.99979.99979 0 0 0 -.98828 1.15186l2 13 .00445-.00068a.98592.98592 0 0 0 .98383.84882h15a1.00073 1.00073 0 0 0 .92871-.62842l4-10a1.00221 1.00221 0 0 0 -.10058-.93213zm-8.54883-1.43945.33349 1h-7.61279a1.00073 1.00073 0 0 0 -.92871.62842l-2.63983 6.59949-1.26546-8.22791zm3.04394 11h-12.84668l3.2002-8h12.84668z"/><path d="m61.82813 50.43945a1.00026 1.00026 0 0 0 -.82813-.43945h-5.2796l-.77216-2.31641a.9989.9989 0 0 0 -.94824-.68359h-14a.99979.99979 0 0 0 -.98828 1.15186l2 13 .00445-.00068a.98592.98592 0 0 0 .98383.84882h15a1.00073 1.00073 0 0 0 .92871-.62842l4-10a1.00221 1.00221 0 0 0 -.10058-.93213zm-8.54883-1.43945.33349 1h-7.61279a1.00073 1.00073 0 0 0 -.92871.62842l-2.63983 6.59949-1.26546-8.22791zm3.04394 11h-12.84668l3.2002-8h12.84668z"/><path d="m17 8h2v2h-2z"/><path d="m17 4h2v2h-2z"/><path d="m21 4h2v2h-2z"/><path d="m25 4h2v2h-2z"/><path d="m29 4h2v2h-2z"/><path d="m33 4h2v2h-2z"/><path d="m33 4h2v2h-2z"/><path d="m17 54h2v2h-2z"/><path d="m17 58h2v2h-2z"/><path d="m21 58h2v2h-2z"/><path d="m25 58h2v2h-2z"/><path d="m29 58h2v2h-2z"/><path d="m33 58h2v2h-2z"/><path d="m33 58h2v2h-2z"/><path d="m18 12c-7.75684 0-16 2.27832-16 6.5v28.5a1.001 1.001 0 0 0 .17383.564c1.75683 2.57028 8.41211 4.436 15.82617 4.436 7.05566 0 14.15527-1.98975 15.82617-4.436a1.001 1.001 0 0 0 .17383-.564v-28.5c0-4.22168-8.24316-6.5-16-6.5zm0 2c8.67383 0 14 2.62109 14 4.5s-5.32617 4.5-14 4.5-14-2.62109-14-4.5 5.32617-4.5 14-4.5zm14 23.14c-1.48706 1.65961-7.25415 3.36-14 3.36s-12.51294-1.70038-14-3.36v-6.87865c2.912 2.11823 8.56976 3.23865 14 3.23865s11.088-1.12042 14-3.23865zm-14 12.86c-6.72559 0-12.49219-1.69043-14-3.3457v-7.01868c2.8924 1.72327 8.20892 2.86438 14 2.86438s11.1076-1.14111 14-2.86438v7.01282c-1.39551 1.46533-7.06641 3.35156-14 3.35156zm0-18.5c-8.67383 0-14-2.62109-14-4.5v-5.23865c2.912 2.11823 8.56976 3.23865 14 3.23865s11.088-1.12042 14-3.23865v5.23865c0 1.87891-5.32617 4.5-14 4.5z"/></svg>
