<svg xmlns="http://www.w3.org/2000/svg" width="48" height="48" viewBox="0 0 48 48"><defs><style>.cls-1{fill:#d0d7df;}.cls-2{fill:#f1f2f2;}.cls-3{fill:#a4b0c0;}.cls-4{fill:#fed049;}.cls-5{fill:#474c54;}</style></defs><title>11-File-Editing</title><g id="_11-File-Editing" data-name="11-File-Editing"><path class="cls-1" d="M47,13H39a4,4,0,0,1-4-4V1Z"/><path class="cls-2" d="M47,13V43a4,4,0,0,1-4,4H9c-4,0-4-4-4-4V5A4,4,0,0,1,9,1H35V9a4,4,0,0,0,4,4h8Z"/><circle class="cls-3" cx="4" cy="26" r="3"/><circle class="cls-3" cx="24" cy="15" r="3"/><path class="cls-1" d="M16,19v4H12V19a1,1,0,0,1,1-1h2A1,1,0,0,1,16,19Z"/><path class="cls-4" d="M16,23V46a1,1,0,0,1-1,1H13a1,1,0,0,1-1-1V23Z"/><path class="cls-5" d="M47.707,12.293l-12-12A1.009,1.009,0,0,0,35,0H9A5.006,5.006,0,0,0,4,5V18a1,1,0,0,0,2,0V5A3,3,0,0,1,9,2H34V9a5.006,5.006,0,0,0,5,5h2a1,1,0,0,0,0-2H39a3,3,0,0,1-3-3V3.414l10,10V43a3,3,0,0,1-3,3H23a1,1,0,0,0,0,2H43a5.006,5.006,0,0,0,5-5V13A1,1,0,0,0,47.707,12.293Z"/><path class="cls-5" d="M15,17H13a2,2,0,0,0-2,2V46a2,2,0,0,0,2,2h2a2,2,0,0,0,2-2V19A2,2,0,0,0,15,17Zm0,2v3H13V19ZM13,46V24h2V46Z"/><path class="cls-5" d="M4,22a4,4,0,0,0,0,8,1,1,0,0,0,0-2,2,2,0,1,1,2-2V39a1,1,0,0,0,2,0V26A4,4,0,0,0,4,22Z"/><path class="cls-5" d="M22,28V15a2,2,0,1,1,2,2,1,1,0,0,0,0,2,4,4,0,1,0-4-4V28a1,1,0,0,0,2,0Z"/><path class="cls-5" d="M12,11v1a1,1,0,0,0,2,0V11h1a1,1,0,0,0,0-2H14V8a1,1,0,0,0-2,0V9H11a1,1,0,0,0,0,2Z"/><path class="cls-5" d="M30,21a1,1,0,0,0-1,1v1H28a1,1,0,0,0,0,2h1v1a1,1,0,0,0,2,0V25h1a1,1,0,0,0,0-2H31V22A1,1,0,0,0,30,21Z"/><path class="cls-5" d="M23,36v1a1,1,0,0,0,2,0V36h1a1,1,0,0,0,0-2H25V33a1,1,0,0,0-2,0v1H22a1,1,0,0,0,0,2Z"/></g></svg>